<svg width="680" height="260" viewBox="0 0 680 260" xmlns="http://www.w3.org/2000/svg">
  <defs>
    <style>.mono { font-family: "JetBrains Mono","Fira Code","Courier New",monospace; }</style>
  </defs>
  <rect width="680" height="260" rx="12" fill="#2d353b"/>
  <rect width="680" height="36" rx="12" fill="#343f44"/>
  <rect y="24" width="680" height="12" fill="#343f44"/>
  <circle cx="20" cy="18" r="6" fill="#e67e80"/>
  <circle cx="40" cy="18" r="6" fill="#dbbc7f"/>
  <circle cx="60" cy="18" r="6" fill="#a7c080"/>
  <text x="340" y="23" text-anchor="middle" class="mono" font-size="12" fill="#7a8478">❯ fahim@pop-os  ~  $  skill --show-all</text>
  
  <!-- Linux -->
  <text x="20" y="90" class="mono" font-size="13" fill="#d3c6aa">🐧  Linux</text>
  <rect x="220" y="77" width="260" height="14" rx="3" fill="#343f44"/>
  <rect x="220" y="77" width="247" height="14" rx="3" fill="#a7c080"/>
  <text x="490" y="90" class="mono" font-size="13" fill="#dbbc7f">96%</text>
  <text x="535" y="90" class="mono" font-size="13" fill="#7a8478">Expert</text>
  <!-- AI Knowledge -->
  <text x="20" y="124" class="mono" font-size="13" fill="#d3c6aa">🤖  AI Knowledge</text>
  <rect x="220" y="111" width="260" height="14" rx="3" fill="#343f44"/>
  <rect x="220" y="111" width="234" height="14" rx="3" fill="#a7c080"/>
  <text x="490" y="124" class="mono" font-size="13" fill="#dbbc7f">92%</text>
  <text x="535" y="124" class="mono" font-size="13" fill="#7a8478">Master</text>
  <!-- HTML & CSS -->
  <text x="20" y="158" class="mono" font-size="13" fill="#d3c6aa">🌐  HTML & CSS</text>
  <rect x="220" y="145" width="260" height="14" rx="3" fill="#343f44"/>
  <rect x="220" y="145" width="234" height="14" rx="3" fill="#a7c080"/>
  <text x="490" y="158" class="mono" font-size="13" fill="#dbbc7f">90%</text>
  <text x="535" y="158" class="mono" font-size="13" fill="#7a8478">Advanced</text>
  <!-- C Programming -->
  <text x="20" y="192" class="mono" font-size="13" fill="#d3c6aa">⚙  C Programming</text>
  <rect x="220" y="179" width="260" height="14" rx="3" fill="#343f44"/>
  <rect x="220" y="179" width="208" height="14" rx="3" fill="#a7c080"/>
  <text x="490" y="192" class="mono" font-size="13" fill="#dbbc7f">80%</text>
  <text x="535" y="192" class="mono" font-size="13" fill="#7a8478">Proficient</text>
  <!-- Python -->
  <text x="20" y="226" class="mono" font-size="13" fill="#d3c6aa">🐍  Python</text>
  <rect x="220" y="213" width="260" height="14" rx="3" fill="#343f44"/>
  <rect x="220" y="213" width="195" height="14" rx="3" fill="#a7c080"/>
  <text x="490" y="226" class="mono" font-size="13" fill="#dbbc7f">78%</text>
  <text x="535" y="226" class="mono" font-size="13" fill="#7a8478">Proficient</text>
  <!-- C++ (CP) -->
  <text x="20" y="260" class="mono" font-size="13" fill="#d3c6aa">🏆  C++ (CP)</text>
  <rect x="220" y="247" width="260" height="14" rx="3" fill="#343f44"/>
  <rect x="220" y="247" width="104" height="14" rx="3" fill="#a7c080"/>
  <text x="490" y="260" class="mono" font-size="13" fill="#dbbc7f">42%</text>
  <text x="535" y="260" class="mono" font-size="13" fill="#7a8478">Learning</text>
</svg>