<svg width="495" height="420" viewBox="0 0 495 420" xmlns="http://www.w3.org/2000/svg">
  <rect width="495" height="420" rx="12" fill="#2d353b"/>
  <rect width="495" height="40" rx="12" fill="#343f44"/>
  <rect y="28" width="495" height="12" fill="#343f44"/>
  <circle cx="20" cy="20" r="6" fill="#e67e80"/>
  <circle cx="40" cy="20" r="6" fill="#dbbc7f"/>
  <circle cx="60" cy="20" r="6" fill="#a7c080"/>
  <text x="247" y="25" text-anchor="middle" font-family="monospace" font-size="12" fill="#7a8478">skill --show-all</text>

  <text x="16" y="66" font-family="monospace" font-size="13" fill="#a7c080">❯ </text>
  <text x="32" y="66" font-family="monospace" font-size="13" fill="#83c092">fahim</text>
  <text x="80" y="66" font-family="monospace" font-size="13" fill="#7a8478">@pop-os</text>
  <text x="142" y="66" font-family="monospace" font-size="13" fill="#d3c6aa"> ~ $ skill --show-all</text>
  <line x1="16" y1="78" x2="479" y2="78" stroke="#475258" stroke-width="1"/>

  <text x="20" y="112" font-family="monospace" font-size="13" fill="#d3c6aa">Linux</text>
  <rect x="20" y="120" width="330" height="13" rx="3" fill="#343f44"/>
  <rect x="20" y="120" width="317" height="13" rx="3" fill="#a7c080"/>
  <text x="362" y="133" font-family="monospace" font-size="13" fill="#dbbc7f">96%</text>
  <text x="398" y="133" font-family="monospace" font-size="12" fill="#7a8478">Expert</text>

  <text x="20" y="162" font-family="monospace" font-size="13" fill="#d3c6aa">AI Knowledge</text>
  <rect x="20" y="170" width="330" height="13" rx="3" fill="#343f44"/>
  <rect x="20" y="170" width="304" height="13" rx="3" fill="#a7c080"/>
  <text x="362" y="183" font-family="monospace" font-size="13" fill="#dbbc7f">92%</text>
  <text x="398" y="183" font-family="monospace" font-size="12" fill="#7a8478">Master</text>

  <text x="20" y="212" font-family="monospace" font-size="13" fill="#d3c6aa">HTML &amp; CSS</text>
  <rect x="20" y="220" width="330" height="13" rx="3" fill="#343f44"/>
  <rect x="20" y="220" width="297" height="13" rx="3" fill="#a7c080"/>
  <text x="362" y="233" font-family="monospace" font-size="13" fill="#dbbc7f">90%</text>
  <text x="398" y="233" font-family="monospace" font-size="12" fill="#7a8478">Advanced</text>

  <text x="20" y="262" font-family="monospace" font-size="13" fill="#d3c6aa">C Programming</text>
  <rect x="20" y="270" width="330" height="13" rx="3" fill="#343f44"/>
  <rect x="20" y="270" width="264" height="13" rx="3" fill="#a7c080"/>
  <text x="362" y="283" font-family="monospace" font-size="13" fill="#dbbc7f">80%</text>
  <text x="398" y="283" font-family="monospace" font-size="12" fill="#7a8478">Proficient</text>

  <text x="20" y="312" font-family="monospace" font-size="13" fill="#d3c6aa">Python</text>
  <rect x="20" y="320" width="330" height="13" rx="3" fill="#343f44"/>
  <rect x="20" y="320" width="257" height="13" rx="3" fill="#a7c080"/>
  <text x="362" y="333" font-family="monospace" font-size="13" fill="#dbbc7f">78%</text>
  <text x="398" y="333" font-family="monospace" font-size="12" fill="#7a8478">Proficient</text>

  <text x="20" y="362" font-family="monospace" font-size="13" fill="#d3c6aa">C++ (CP)</text>
  <rect x="20" y="370" width="330" height="13" rx="3" fill="#343f44"/>
  <rect x="20" y="370" width="139" height="13" rx="3" fill="#e69875"/>
  <text x="362" y="383" font-family="monospace" font-size="13" fill="#dbbc7f">42%</text>
  <text x="398" y="383" font-family="monospace" font-size="12" fill="#7a8478">Learning</text>

  <text x="20" y="410" font-family="monospace" font-size="12" fill="#475258">❯ _</text>
</svg>