<svg width="500" height="440" viewBox="0 0 500 440" xmlns="http://www.w3.org/2000/svg">
  <rect width="500" height="440" rx="12" fill="#2d353b"/>
  <rect width="500" height="40" rx="12" fill="#343f44"/>
  <rect y="28" width="500" height="12" fill="#343f44"/>
  <circle cx="20" cy="20" r="6" fill="#e67e80"/>
  <circle cx="40" cy="20" r="6" fill="#dbbc7f"/>
  <circle cx="60" cy="20" r="6" fill="#a7c080"/>
  <text x="250" y="25" text-anchor="middle" font-family="monospace" font-size="12" fill="#7a8478">fahim@pop-os -- skill --show-all</text>
  <text x="16" y="64" font-family="monospace" font-size="13" fill="#a7c080">~ fahim@pop-os $ skill --show-all</text>
  <line x1="16" y1="74" x2="484" y2="74" stroke="#475258" stroke-width="1"/>

  <text x="20" y="106" font-family="monospace" font-size="13" fill="#d3c6aa">Linux</text>
  <rect x="20" y="114" width="340" height="14" rx="3" fill="#343f44"/>
  <rect x="20" y="114" width="326" height="14" rx="3" fill="#a7c080"/>
  <text x="372" y="127" font-family="monospace" font-size="13" fill="#dbbc7f">96%</text>
  <text x="410" y="127" font-family="monospace" font-size="12" fill="#7a8478">Expert</text>

  <text x="20" y="158" font-family="monospace" font-size="13" fill="#d3c6aa">AI Knowledge</text>
  <rect x="20" y="166" width="340" height="14" rx="3" fill="#343f44"/>
  <rect x="20" y="166" width="313" height="14" rx="3" fill="#a7c080"/>
  <text x="372" y="179" font-family="monospace" font-size="13" fill="#dbbc7f">92%</text>
  <text x="410" y="179" font-family="monospace" font-size="12" fill="#7a8478">Master</text>

  <text x="20" y="210" font-family="monospace" font-size="13" fill="#d3c6aa">HTML &amp; CSS</text>
  <rect x="20" y="218" width="340" height="14" rx="3" fill="#343f44"/>
  <rect x="20" y="218" width="306" height="14" rx="3" fill="#a7c080"/>
  <text x="372" y="231" font-family="monospace" font-size="13" fill="#dbbc7f">90%</text>
  <text x="410" y="231" font-family="monospace" font-size="12" fill="#7a8478">Advanced</text>

  <text x="20" y="262" font-family="monospace" font-size="13" fill="#d3c6aa">C Programming</text>
  <rect x="20" y="270" width="340" height="14" rx="3" fill="#343f44"/>
  <rect x="20" y="270" width="272" height="14" rx="3" fill="#a7c080"/>
  <text x="372" y="283" font-family="monospace" font-size="13" fill="#dbbc7f">80%</text>
  <text x="410" y="283" font-family="monospace" font-size="12" fill="#7a8478">Proficient</text>

  <text x="20" y="314" font-family="monospace" font-size="13" fill="#d3c6aa">Python</text>
  <rect x="20" y="322" width="340" height="14" rx="3" fill="#343f44"/>
  <rect x="20" y="322" width="265" height="14" rx="3" fill="#a7c080"/>
  <text x="372" y="335" font-family="monospace" font-size="13" fill="#dbbc7f">78%</text>
  <text x="410" y="335" font-family="monospace" font-size="12" fill="#7a8478">Proficient</text>

  <text x="20" y="366" font-family="monospace" font-size="13" fill="#d3c6aa">C++ (CP)</text>
  <rect x="20" y="374" width="340" height="14" rx="3" fill="#343f44"/>
  <rect x="20" y="374" width="143" height="14" rx="3" fill="#e69875"/>
  <text x="372" y="387" font-family="monospace" font-size="13" fill="#dbbc7f">42%</text>
  <text x="410" y="387" font-family="monospace" font-size="12" fill="#7a8478">Learning</text>

  <text x="20" y="425" font-family="monospace" font-size="12" fill="#475258">~ _</text>
</svg>