<svg width="680" height="260" viewBox="0 0 680 260" xmlns="http://www.w3.org/2000/svg">
  <rect width="680" height="260" rx="12" fill="#2d353b"/>
  <rect width="680" height="36" rx="12" fill="#343f44"/>
  <rect y="24" width="680" height="12" fill="#343f44"/>
  <circle cx="20" cy="18" r="6" fill="#e67e80"/>
  <circle cx="40" cy="18" r="6" fill="#dbbc7f"/>
  <circle cx="60" cy="18" r="6" fill="#a7c080"/>
  <text x="340" y="23" text-anchor="middle" font-family="monospace" font-size="12" fill="#7a8478">fahim@pop-os  ~  $  skill --show-all</text>

  <!-- Linux -->
  <text x="20" y="90" font-family="monospace" font-size="13" fill="#d3c6aa">Linux</text>
  <rect x="180" y="77" width="300" height="14" rx="3" fill="#343f44"/>
  <rect x="180" y="77" width="288" height="14" rx="3" fill="#a7c080"/>
  <text x="492" y="90" font-family="monospace" font-size="13" fill="#dbbc7f">96%</text>
  <text x="535" y="90" font-family="monospace" font-size="13" fill="#7a8478">Expert</text>

  <!-- AI Knowledge -->
  <text x="20" y="124" font-family="monospace" font-size="13" fill="#d3c6aa">AI Knowledge</text>
  <rect x="180" y="111" width="300" height="14" rx="3" fill="#343f44"/>
  <rect x="180" y="111" width="276" height="14" rx="3" fill="#a7c080"/>
  <text x="492" y="124" font-family="monospace" font-size="13" fill="#dbbc7f">92%</text>
  <text x="535" y="124" font-family="monospace" font-size="13" fill="#7a8478">Master</text>

  <!-- HTML and CSS -->
  <text x="20" y="158" font-family="monospace" font-size="13" fill="#d3c6aa">HTML &amp; CSS</text>
  <rect x="180" y="145" width="300" height="14" rx="3" fill="#343f44"/>
  <rect x="180" y="145" width="270" height="14" rx="3" fill="#a7c080"/>
  <text x="492" y="158" font-family="monospace" font-size="13" fill="#dbbc7f">90%</text>
  <text x="535" y="158" font-family="monospace" font-size="13" fill="#7a8478">Advanced</text>

  <!-- C Programming -->
  <text x="20" y="192" font-family="monospace" font-size="13" fill="#d3c6aa">C Programming</text>
  <rect x="180" y="179" width="300" height="14" rx="3" fill="#343f44"/>
  <rect x="180" y="179" width="240" height="14" rx="3" fill="#a7c080"/>
  <text x="492" y="192" font-family="monospace" font-size="13" fill="#dbbc7f">80%</text>
  <text x="535" y="192" font-family="monospace" font-size="13" fill="#7a8478">Proficient</text>

  <!-- Python -->
  <text x="20" y="226" font-family="monospace" font-size="13" fill="#d3c6aa">Python</text>
  <rect x="180" y="213" width="300" height="14" rx="3" fill="#343f44"/>
  <rect x="180" y="213" width="234" height="14" rx="3" fill="#a7c080"/>
  <text x="492" y="226" font-family="monospace" font-size="13" fill="#dbbc7f">78%</text>
  <text x="535" y="226" font-family="monospace" font-size="13" fill="#7a8478">Proficient</text>

  <!-- C++ CP -->
  <text x="20" y="253" font-family="monospace" font-size="13" fill="#d3c6aa">C++ (CP)</text>
  <rect x="180" y="240" width="300" height="14" rx="3" fill="#343f44"/>
  <rect x="180" y="240" width="126" height="14" rx="3" fill="#e69875"/>
  <text x="492" y="253" font-family="monospace" font-size="13" fill="#dbbc7f">42%</text>
  <text x="535" y="253" font-family="monospace" font-size="13" fill="#7a8478">Learning</text>
</svg>
