<svg width="500" height="440" viewBox="0 0 500 440" xmlns="http://www.w3.org/2000/svg">
  <rect width="500" height="440" rx="12" fill="#2d353b"/>
  <rect width="500" height="40" rx="12" fill="#343f44"/>
  <rect y="28" width="500" height="12" fill="#343f44"/>
  <circle cx="20" cy="20" r="6" fill="#e67e80"/>
  <circle cx="40" cy="20" r="6" fill="#dbbc7f"/>
  <circle cx="60" cy="20" r="6" fill="#a7c080"/>
  <text x="250" y="25" text-anchor="middle" font-family="monospace" font-size="12" fill="#7a8478">fahim@pop-os -- cat about.yaml</text>
  <text x="16" y="64" font-family="monospace" font-size="13" fill="#a7c080">~ fahim@pop-os $ cat about.yaml</text>
  <line x1="16" y1="74" x2="484" y2="74" stroke="#475258" stroke-width="1"/>
  <text x="20" y="98"  font-family="monospace" font-size="13" fill="#83c092">Name    </text><text x="112" y="98"  font-family="monospace" font-size="13" fill="#7a8478">:</text><text x="124" y="98"  font-family="monospace" font-size="13" fill="#d3c6aa"> Md. Tanvir Rahman Fahim</text>
  <text x="20" y="120" font-family="monospace" font-size="13" fill="#83c092">Location</text><text x="112" y="120" font-family="monospace" font-size="13" fill="#7a8478">:</text><text x="124" y="120" font-family="monospace" font-size="13" fill="#d3c6aa"> Bangladesh</text>
  <text x="20" y="142" font-family="monospace" font-size="13" fill="#83c092">Study   </text><text x="112" y="142" font-family="monospace" font-size="13" fill="#7a8478">:</text><text x="124" y="142" font-family="monospace" font-size="13" fill="#d3c6aa"> BSc CSE @ Daffodil Intl. Univ.</text>
  <text x="20" y="164" font-family="monospace" font-size="13" fill="#83c092">OS      </text><text x="112" y="164" font-family="monospace" font-size="13" fill="#7a8478">:</text><text x="124" y="164" font-family="monospace" font-size="13" fill="#d3c6aa"> Pop!_OS 24.04 + COSMIC DE</text>
  <text x="20" y="186" font-family="monospace" font-size="13" fill="#83c092">Shell   </text><text x="112" y="186" font-family="monospace" font-size="13" fill="#7a8478">:</text><text x="124" y="186" font-family="monospace" font-size="13" fill="#d3c6aa"> fish</text>
  <text x="20" y="208" font-family="monospace" font-size="13" fill="#83c092">Linux   </text><text x="112" y="208" font-family="monospace" font-size="13" fill="#7a8478">:</text><text x="124" y="208" font-family="monospace" font-size="13" fill="#d3c6aa"> Since 2019 - 80+ distros</text>
  <text x="20" y="230" font-family="monospace" font-size="13" fill="#83c092">Editor  </text><text x="112" y="230" font-family="monospace" font-size="13" fill="#7a8478">:</text><text x="124" y="230" font-family="monospace" font-size="13" fill="#d3c6aa"> nvim</text>
  <text x="20" y="252" font-family="monospace" font-size="13" fill="#83c092">Loves   </text><text x="112" y="252" font-family="monospace" font-size="13" fill="#7a8478">:</text><text x="124" y="252" font-family="monospace" font-size="13" fill="#d3c6aa"> Open Source Software</text>
  <text x="20" y="274" font-family="monospace" font-size="13" fill="#83c092">Playing </text><text x="112" y="274" font-family="monospace" font-size="13" fill="#7a8478">:</text><text x="124" y="274" font-family="monospace" font-size="13" fill="#d3c6aa"> Genshin Impact</text>
  <text x="20" y="296" font-family="monospace" font-size="13" fill="#83c092">Learning</text><text x="112" y="296" font-family="monospace" font-size="13" fill="#7a8478">:</text><text x="124" y="296" font-family="monospace" font-size="13" fill="#d3c6aa"> C++ for Competitive Programming</text>
  <line x1="16" y1="312" x2="484" y2="312" stroke="#475258" stroke-width="1"/>
  <text x="20" y="336" font-family="monospace" font-size="13" fill="#83c092">Status  </text><text x="112" y="336" font-family="monospace" font-size="13" fill="#7a8478">:</text>
  <rect x="124" y="323" width="90" height="14" rx="3" fill="#343f44"/>
  <rect x="124" y="323" width="72" height="14" rx="3" fill="#a7c080"/>
  <text x="222" y="336" font-family="monospace" font-size="13" fill="#d3c6aa"> Online - Always building</text>
  <text x="20" y="410" font-family="monospace" font-size="12" fill="#475258">~ _</text>
</svg>