<svg width="495" height="420" viewBox="0 0 495 420" xmlns="http://www.w3.org/2000/svg">
  <rect width="495" height="420" rx="12" fill="#2d353b"/>
  <rect width="495" height="40" rx="12" fill="#343f44"/>
  <rect y="28" width="495" height="12" fill="#343f44"/>
  <circle cx="20" cy="20" r="6" fill="#e67e80"/>
  <circle cx="40" cy="20" r="6" fill="#dbbc7f"/>
  <circle cx="60" cy="20" r="6" fill="#a7c080"/>
  <text x="247" y="25" text-anchor="middle" font-family="monospace" font-size="12" fill="#7a8478">whoami — cat about.yaml</text>

  <text x="16" y="66" font-family="monospace" font-size="13" fill="#a7c080">❯ </text>
  <text x="32" y="66" font-family="monospace" font-size="13" fill="#83c092">fahim</text>
  <text x="80" y="66" font-family="monospace" font-size="13" fill="#7a8478">@pop-os</text>
  <text x="142" y="66" font-family="monospace" font-size="13" fill="#d3c6aa"> ~ $ cat about.yaml</text>
  <line x1="16" y1="78" x2="479" y2="78" stroke="#475258" stroke-width="1"/>

  <text x="20" y="102" font-family="monospace" font-size="13" fill="#83c092">Name    </text><text x="110" y="102" font-family="monospace" font-size="13" fill="#7a8478">:</text><text x="122" y="102" font-family="monospace" font-size="13" fill="#d3c6aa"> Md. Tanvir Rahman Fahim</text>
  <text x="20" y="126" font-family="monospace" font-size="13" fill="#83c092">Location</text><text x="110" y="126" font-family="monospace" font-size="13" fill="#7a8478">:</text><text x="122" y="126" font-family="monospace" font-size="13" fill="#d3c6aa"> Bangladesh</text>
  <text x="20" y="150" font-family="monospace" font-size="13" fill="#83c092">Study   </text><text x="110" y="150" font-family="monospace" font-size="13" fill="#7a8478">:</text><text x="122" y="150" font-family="monospace" font-size="13" fill="#d3c6aa"> BSc CSE @ Daffodil Intl. Univ.</text>
  <text x="20" y="174" font-family="monospace" font-size="13" fill="#83c092">OS      </text><text x="110" y="174" font-family="monospace" font-size="13" fill="#7a8478">:</text><text x="122" y="174" font-family="monospace" font-size="13" fill="#d3c6aa"> Pop!_OS 24.04 + COSMIC DE</text>
  <text x="20" y="198" font-family="monospace" font-size="13" fill="#83c092">Shell   </text><text x="110" y="198" font-family="monospace" font-size="13" fill="#7a8478">:</text><text x="122" y="198" font-family="monospace" font-size="13" fill="#d3c6aa"> fish</text>
  <text x="20" y="222" font-family="monospace" font-size="13" fill="#83c092">Linux   </text><text x="110" y="222" font-family="monospace" font-size="13" fill="#7a8478">:</text><text x="122" y="222" font-family="monospace" font-size="13" fill="#d3c6aa"> Since 2019 · 80+ distros</text>
  <text x="20" y="246" font-family="monospace" font-size="13" fill="#83c092">Editor  </text><text x="110" y="246" font-family="monospace" font-size="13" fill="#7a8478">:</text><text x="122" y="246" font-family="monospace" font-size="13" fill="#d3c6aa"> nvim</text>
  <text x="20" y="270" font-family="monospace" font-size="13" fill="#83c092">Loves   </text><text x="110" y="270" font-family="monospace" font-size="13" fill="#7a8478">:</text><text x="122" y="270" font-family="monospace" font-size="13" fill="#d3c6aa"> Open Source Software</text>
  <text x="20" y="294" font-family="monospace" font-size="13" fill="#83c092">Playing </text><text x="110" y="294" font-family="monospace" font-size="13" fill="#7a8478">:</text><text x="122" y="294" font-family="monospace" font-size="13" fill="#d3c6aa"> Genshin Impact</text>
  <text x="20" y="318" font-family="monospace" font-size="13" fill="#83c092">Learning</text><text x="110" y="318" font-family="monospace" font-size="13" fill="#7a8478">:</text><text x="122" y="318" font-family="monospace" font-size="13" fill="#d3c6aa"> C++ for Competitive Programming</text>

  <line x1="16" y1="332" x2="479" y2="332" stroke="#475258" stroke-width="1"/>
  <text x="20" y="356" font-family="monospace" font-size="13" fill="#83c092">Status  </text><text x="110" y="356" font-family="monospace" font-size="13" fill="#7a8478">:</text>
  <rect x="122" y="343" width="90" height="13" rx="3" fill="#343f44"/>
  <rect x="122" y="343" width="72" height="13" rx="3" fill="#a7c080"/>
  <text x="220" y="356" font-family="monospace" font-size="13" fill="#d3c6aa"> Online · Always building</text>

  <text x="20" y="400" font-family="monospace" font-size="12" fill="#475258">❯ _</text>
</svg>