<svg width="680" height="320" viewBox="0 0 680 320" xmlns="http://www.w3.org/2000/svg">
  <rect width="680" height="320" rx="12" fill="#2d353b"/>
  <rect width="680" height="36" rx="12" fill="#343f44"/>
  <rect y="24" width="680" height="12" fill="#343f44"/>
  <circle cx="20" cy="18" r="6" fill="#e67e80"/>
  <circle cx="40" cy="18" r="6" fill="#dbbc7f"/>
  <circle cx="60" cy="18" r="6" fill="#a7c080"/>
  <text x="340" y="23" text-anchor="middle" font-family="monospace" font-size="12" fill="#7a8478">fahim@pop-os — cat about.yaml</text>

  <text x="20" y="60" font-family="monospace" font-size="13" fill="#a7c080">❯ </text>
  <text x="40" y="60" font-family="monospace" font-size="13" fill="#83c092">fahim</text>
  <text x="88" y="60" font-family="monospace" font-size="13" fill="#7a8478">@pop-os</text>
  <text x="150" y="60" font-family="monospace" font-size="13" fill="#d3c6aa"> ~ $ cat about.yaml</text>
  <line x1="20" y1="70" x2="660" y2="70" stroke="#475258" stroke-width="1"/>

  <text x="30" y="93"  font-family="monospace" font-size="13" fill="#83c092">Name    </text>
  <text x="118" y="93"  font-family="monospace" font-size="13" fill="#7a8478"> : </text>
  <text x="140" y="93"  font-family="monospace" font-size="13" fill="#d3c6aa">Md. Tanvir Rahman Fahim</text>

  <text x="30" y="113" font-family="monospace" font-size="13" fill="#83c092">Location</text>
  <text x="118" y="113" font-family="monospace" font-size="13" fill="#7a8478"> : </text>
  <text x="140" y="113" font-family="monospace" font-size="13" fill="#d3c6aa">Bangladesh</text>

  <text x="30" y="133" font-family="monospace" font-size="13" fill="#83c092">Study   </text>
  <text x="118" y="133" font-family="monospace" font-size="13" fill="#7a8478"> : </text>
  <text x="140" y="133" font-family="monospace" font-size="13" fill="#d3c6aa">BSc CSE @ Daffodil International University</text>

  <text x="30" y="153" font-family="monospace" font-size="13" fill="#83c092">OS      </text>
  <text x="118" y="153" font-family="monospace" font-size="13" fill="#7a8478"> : </text>
  <text x="140" y="153" font-family="monospace" font-size="13" fill="#d3c6aa">Pop!_OS 24.04 LTS + COSMIC DE</text>

  <text x="30" y="173" font-family="monospace" font-size="13" fill="#83c092">Shell   </text>
  <text x="118" y="173" font-family="monospace" font-size="13" fill="#7a8478"> : </text>
  <text x="140" y="173" font-family="monospace" font-size="13" fill="#d3c6aa">fish</text>

  <text x="30" y="193" font-family="monospace" font-size="13" fill="#83c092">Linux   </text>
  <text x="118" y="193" font-family="monospace" font-size="13" fill="#7a8478"> : </text>
  <text x="140" y="193" font-family="monospace" font-size="13" fill="#d3c6aa">Since 2019 · 80+ distros explored</text>

  <text x="30" y="213" font-family="monospace" font-size="13" fill="#83c092">Editor  </text>
  <text x="118" y="213" font-family="monospace" font-size="13" fill="#7a8478"> : </text>
  <text x="140" y="213" font-family="monospace" font-size="13" fill="#d3c6aa">nvim</text>

  <text x="30" y="233" font-family="monospace" font-size="13" fill="#83c092">Loves   </text>
  <text x="118" y="233" font-family="monospace" font-size="13" fill="#7a8478"> : </text>
  <text x="140" y="233" font-family="monospace" font-size="13" fill="#d3c6aa">Open Source Software</text>

  <text x="30" y="253" font-family="monospace" font-size="13" fill="#83c092">Playing </text>
  <text x="118" y="253" font-family="monospace" font-size="13" fill="#7a8478"> : </text>
  <text x="140" y="253" font-family="monospace" font-size="13" fill="#d3c6aa">Genshin Impact</text>

  <text x="30" y="273" font-family="monospace" font-size="13" fill="#83c092">Learning</text>
  <text x="118" y="273" font-family="monospace" font-size="13" fill="#7a8478"> : </text>
  <text x="140" y="273" font-family="monospace" font-size="13" fill="#d3c6aa">C++ for Competitive Programming</text>

  <line x1="20" y1="283" x2="660" y2="283" stroke="#475258" stroke-width="1"/>
  <text x="30" y="305" font-family="monospace" font-size="13" fill="#83c092">Status  </text>
  <text x="118" y="305" font-family="monospace" font-size="13" fill="#7a8478"> : </text>
  <rect x="140" y="292" width="80" height="14" rx="3" fill="#a7c08055"/>
  <rect x="140" y="292" width="64" height="14" rx="3" fill="#a7c080"/>
  <text x="232" y="305" font-family="monospace" font-size="13" fill="#d3c6aa"> Online · Always building</text>
</svg>
